<?xml version="1.0" standalone="no"?>
<!DOCTYPE svg PUBLIC "-//W3C//DTD SVG 20010904//EN"
 "http://www.w3.org/TR/2001/REC-SVG-20010904/DTD/svg10.dtd">
<svg version="1.0" xmlns="http://www.w3.org/2000/svg"
 width="1020.000000pt" height="1020.000000pt" viewBox="0 0 1020.000000 1020.000000"
 preserveAspectRatio="xMidYMid meet">
<metadata>
Created by potrace 1.14, written by Peter Selinger 2001-2017
</metadata>
<g transform="translate(0.000000,1020.000000) scale(0.100000,-0.100000)"
fill="#000000" stroke="none">
<path d="M2755 8485 c-529 -83 -934 -490 -1019 -1022 -20 -129 -11 -4622 10
-4758 64 -423 397 -808 814 -944 185 -59 -12 -55 2490 -58 1617 -3 2310 -1
2370 7 262 34 493 142 683 320 185 173 299 372 364 637 15 61 17 175 20 1087
3 892 2 1024 -11 1065 -19 56 -38 267 -31 330 5 39 13 158 16 223 0 10 4 20 9
23 5 3 7 12 3 20 -3 8 0 15 6 15 7 0 11 285 11 974 0 833 -2 988 -15 1071 -42
257 -179 519 -350 664 -41 35 -72 68 -69 73 3 5 2 7 -3 6 -13 -4 -54 22 -49
31 3 4 0 8 -7 8 -13 0 -117 70 -129 88 -4 5 -8 7 -8 2 0 -9 -82 32 -91 45 -3
5 -10 9 -15 9 -5 -1 -27 6 -49 16 -74 30 -184 59 -280 72 -119 17 -4564 13
-4670 -4z m-148 -428 c-3 -8 1 -14 9 -14 7 0 10 5 7 10 -4 6 -1 7 8 1 19 -12
32 -12 48 0 10 8 15 8 18 -1 7 -20 23 -15 17 5 -3 9 1 6 9 -8 11 -18 24 -25
50 -25 20 -1 35 3 34 8 -1 5 3 11 9 14 11 4 15 -55 18 -223 0 -49 4 -60 15
-56 9 3 12 1 7 -6 -3 -6 -2 -13 3 -17 6 -3 8 4 6 16 -6 31 4 42 23 27 12 -10
14 -10 8 0 -10 17 22 28 37 13 7 -7 8 -12 2 -11 -24 5 -27 -1 -10 -20 16 -18
8 -30 -9 -13 -11 12 -33 11 -33 -1 0 -6 13 -10 29 -10 41 2 42 3 29 18 -9 10
-8 15 4 19 8 4 14 3 12 -1 -1 -4 1 -8 6 -9 4 -2 19 -15 34 -30 14 -16 21 -21
15 -12 -9 11 -8 21 4 38 13 18 14 25 2 39 -12 16 -11 16 6 2 11 -8 22 -14 25
-12 3 2 7 -2 9 -10 2 -9 0 -8 -7 2 -6 8 -11 11 -11 5 0 -5 12 -23 26 -40 14
-16 22 -23 17 -15 -13 24 -11 81 3 70 6 -6 13 -7 17 -4 3 3 11 -4 17 -16 7
-12 8 -20 3 -17 -4 3 -8 -8 -8 -24 -1 -27 7 -32 11 -6 1 7 3 17 4 22 6 28 -3
46 -32 61 -20 10 -28 19 -20 22 7 2 21 -3 31 -12 21 -19 35 -21 25 -3 -4 7 -3
8 2 4 5 -5 9 -34 11 -65 2 -87 3 -843 0 -872 -1 -17 -9 -26 -24 -28 -24 -3
-30 -16 -14 -26 5 -4 12 0 15 6 2 7 4 2 3 -12 -1 -14 3 -24 8 -23 6 1 11 -8
11 -19 0 -20 0 -20 -15 -1 -15 19 -16 19 -34 -1 -19 -21 -19 -21 -4 3 12 18
13 29 5 47 -14 31 -26 30 -40 -2 -9 -19 -9 -30 0 -44 7 -12 8 -21 2 -25 -6 -4
-7 -11 -4 -17 4 -6 2 -8 -4 -4 -10 6 -26 -10 -27 -26 0 -3 -3 -9 -7 -13 -3 -4
-5 0 -4 9 1 8 5 18 9 22 3 4 4 11 1 16 -3 5 -12 1 -20 -9 -13 -17 -14 -17 -8
0 4 12 2 17 -7 15 -7 -2 -14 6 -16 17 -2 15 -1 16 5 5 6 -13 28 -17 58 -11 10
2 -45 51 -57 51 -6 0 -20 -5 -32 -12 -32 -17 -57 -20 -57 -5 0 8 -4 7 -10 -3
-8 -13 -10 -12 -10 3 0 19 15 23 25 7 5 -8 11 -7 21 1 8 6 14 8 14 5 0 -4 5
-4 11 -1 7 5 4 14 -8 28 -9 12 -11 16 -3 10 23 -21 33 -15 27 17 -4 17 -2 32
5 36 7 4 8 3 4 -4 -4 -7 -2 -12 3 -12 6 0 11 15 11 33 0 24 3 28 10 17 7 -11
10 -11 10 -2 0 7 5 10 10 7 8 -5 7 -12 -2 -22 -10 -13 -8 -14 12 -11 13 1 26
10 28 18 5 13 3 13 -13 0 -10 -8 -16 -10 -12 -4 10 18 -14 31 -53 28 -19 -1
-39 1 -45 4 -16 10 -36 11 -30 2 3 -4 -7 -16 -21 -25 -15 -9 -23 -12 -20 -6 4
6 2 11 -3 11 -7 0 -11 -39 -12 -107 0 -60 -1 -130 -2 -158 l-3 -50 -157 -3
-157 -3 0 699 c0 384 3 702 7 705 3 4 15 -1 26 -10 13 -11 17 -12 12 -4 -6 11
-4 13 10 7 16 -6 16 -4 4 11 -9 11 -10 14 -1 9 7 -4 15 -1 18 8 3 9 8 16 11
16 3 0 3 -6 0 -13z m-50 -19 c-3 -8 -6 -5 -6 6 -1 11 2 17 5 13 3 -3 4 -12 1
-19z m243 10 c0 -4 -4 -10 -10 -13 -5 -3 -10 -1 -10 4 0 6 -5 11 -11 11 -5 0
-8 -4 -5 -8 3 -5 -1 -9 -8 -9 -8 0 -12 6 -9 13 5 14 53 16 53 2z m201 -141
c-6 -8 -7 -17 -3 -21 4 -4 3 -7 -3 -6 -22 5 -27 -1 -15 -15 7 -9 8 -15 2 -15
-5 0 -13 8 -17 18 -6 15 -8 15 -25 -5 -9 -12 -20 -20 -23 -17 -3 3 -8 1 -12
-5 -3 -6 2 -11 12 -12 16 0 16 -1 -2 -9 -32 -14 -41 -11 -53 15 -8 18 -8 24 0
22 6 -1 11 8 13 20 2 30 11 38 19 18 3 -9 2 -13 -4 -10 -12 8 -13 -5 -1 -24 8
-12 14 -11 38 5 15 10 33 19 38 19 6 1 9 7 7 14 -1 7 2 10 7 7 5 -4 12 -2 16
4 3 5 9 10 12 10 3 0 0 -6 -6 -13z m116 -2 c0 -8 -4 -12 -9 -9 -5 3 -6 10 -3
15 9 13 12 11 12 -6z m-17 -19 c0 -2 -8 -10 -17 -17 -16 -13 -17 -12 -4 4 13
16 21 21 21 13z m-43 -33 c0 -7 -4 -13 -8 -13 -4 0 -9 6 -12 13 -3 8 0 14 7
14 7 0 13 -6 13 -14z m-67 -32 c-34 -19 -56 -19 -44 0 3 5 10 7 15 4 5 -4 9
-2 9 2 0 5 12 9 28 10 26 2 26 2 -8 -16z m18 -24 c7 -8 6 -17 -3 -30 -11 -16
-13 -16 -19 -2 -3 9 -11 13 -17 9 -8 -4 -8 0 0 15 13 24 24 26 39 8z m-82
-852 c-1 -8 -6 -18 -10 -22 -4 -4 -7 -3 -6 2 5 24 -2 27 -22 9 -21 -17 -21
-17 1 8 24 28 41 29 37 3z m38 6 c3 -4 -4 -17 -16 -27 -13 -12 -18 -13 -12 -4
5 8 9 18 10 23 3 15 4 17 8 17 3 0 7 -4 10 -9z m-69 -41 c-3 -5 1 -10 9 -10
20 0 21 -16 2 -23 -14 -6 -29 26 -18 37 9 10 14 7 7 -4z m4692 -33 c-22 -34
-79 -69 -104 -64 -13 2 -23 -1 -24 -7 0 -7 -3 -6 -6 2 -2 6 -8 10 -13 7 -11
-7 -7 22 5 32 4 4 5 3 1 -4 -3 -6 -2 -14 4 -18 5 -3 10 1 10 9 0 8 5 18 12 22
7 4 8 3 4 -5 -4 -6 19 4 51 23 62 37 83 37 60 3z m-2153 -16 c329 -66 626
-218 876 -449 l65 -60 885 -6 c487 -4 893 -7 903 -7 14 0 15 -4 5 -22 -10 -19
-9 -20 4 -9 14 11 15 8 13 -18 -1 -17 2 -33 8 -37 6 -4 7 -1 2 7 -5 9 -4 11 4
6 9 -6 9 -11 0 -22 -9 -11 -8 -14 2 -15 10 0 11 -2 2 -6 -7 -2 -13 -9 -13 -14
0 -6 4 -8 9 -5 5 4 8 -2 6 -11 -2 -10 -4 -22 -4 -26 -1 -5 -6 -5 -13 -1 -7 5
-8 3 -3 -6 13 -20 12 -90 0 -80 -6 5 -11 -6 -12 -31 -2 -25 2 -39 10 -39 8 0
7 -4 -3 -10 -8 -5 -10 -10 -5 -10 6 0 3 -5 -5 -10 -10 -6 -11 -10 -2 -10 6 0
12 -5 12 -11 0 -5 -5 -7 -11 -3 -8 5 -8 1 0 -14 8 -15 8 -23 0 -27 -6 -4 -8
-13 -5 -21 3 -7 1 -16 -5 -20 -6 -4 -6 -11 2 -20 7 -8 7 -14 1 -14 -5 0 -8
-13 -7 -30 1 -17 -2 -30 -9 -30 -6 0 -4 -5 4 -10 8 -5 10 -10 4 -10 -6 0 -10
-12 -9 -27 1 -16 -2 -33 -7 -40 -5 -7 -5 -14 2 -18 6 -3 7 -11 4 -17 -4 -6 -8
-24 -9 -40 -2 -16 -5 -32 -8 -35 -4 -3 -2 -14 4 -24 5 -11 6 -19 2 -19 -4 0
-9 -17 -9 -38 -3 -57 -12 -225 -20 -337 -4 -55 -8 -160 -8 -232 -1 -81 -5
-133 -11 -133 -5 0 -4 -4 3 -9 8 -4 14 -12 14 -16 0 -4 -6 -12 -14 -16 -11 -7
-11 -9 1 -9 10 0 11 -3 2 -14 -8 -10 -9 -16 -1 -21 6 -4 7 -12 2 -22 -5 -8 -6
-33 -2 -54 5 -26 4 -39 -4 -39 -7 0 -8 -3 -1 -8 9 -6 13 -46 5 -54 -1 -2 -3
-25 -6 -51 -2 -30 0 -46 6 -42 6 4 8 10 5 15 -3 5 -2 11 3 14 4 2 8 -6 8 -19
0 -13 -2 -23 -5 -23 -25 2 -27 -8 -25 -87 2 -63 0 -84 -9 -79 -8 5 -8 3 1 -7
6 -7 12 -20 12 -28 0 -14 -2 -14 -11 -1 -7 11 -8 6 -4 -19 5 -24 4 -32 -5 -26
-8 5 -7 0 2 -14 11 -18 11 -23 -2 -31 -13 -8 -13 -10 -1 -10 11 0 10 -4 -4
-13 -14 -11 -15 -16 -5 -22 9 -6 11 -4 5 5 -5 8 -3 11 6 8 8 -3 13 -10 12 -16
-2 -7 4 -9 14 -5 15 6 16 5 3 -9 -12 -12 -18 -13 -30 -5 -10 8 -9 4 2 -9 19
-22 31 -101 18 -109 -5 -3 -9 -13 -8 -23 0 -28 -10 -63 -24 -79 -7 -9 -13 -29
-14 -44 -1 -16 -6 -35 -13 -43 -9 -10 -9 -16 -1 -21 8 -5 8 -11 1 -19 -6 -7
-7 -17 -3 -21 4 -5 2 -5 -4 -2 -13 7 -12 44 2 72 12 26 12 56 -1 52 -6 -1 -9
-5 -7 -9 8 -25 4 -50 -7 -44 -4 3 -7 -15 -6 -39 2 -25 0 -43 -4 -41 -4 3 -7
-6 -7 -20 0 -13 4 -24 8 -24 4 0 7 -3 7 -7 -4 -22 2 -43 10 -39 16 10 5 -26
-11 -38 -13 -10 -13 -13 -1 -25 8 -7 12 -16 8 -19 -3 -4 -10 -1 -14 7 -7 10
-9 9 -14 -3 -4 -9 -1 -15 5 -13 7 1 13 -8 14 -21 1 -17 -3 -22 -15 -17 -8 3
-12 3 -8 -1 4 -4 2 -13 -4 -20 -7 -8 -6 -14 2 -20 7 -4 9 -3 5 4 -3 6 -1 14 5
18 10 6 9 -23 -5 -81 -2 -11 -5 -28 -5 -38 -1 -11 -6 -15 -13 -11 -6 4 -8 3
-4 -4 8 -13 -39 -124 -78 -182 -16 -25 -57 -76 -91 -115 -67 -78 -161 -220
-225 -340 -24 -44 -48 -83 -54 -87 -6 -4 -7 -8 -2 -8 5 0 3 -6 -3 -13 -6 -8
-9 -17 -6 -20 3 -4 2 -5 -1 -2 -6 4 -18 -11 -71 -85 -26 -36 -222 -230 -233
-230 -5 0 -12 -5 -16 -12 -5 -7 -3 -8 6 -3 9 5 11 4 6 -4 -6 -9 -11 -9 -24 1
-13 10 -14 10 -8 0 6 -9 1 -12 -16 -8 -23 4 -63 -16 -53 -26 3 -2 -2 -5 -10
-5 -8 0 -12 3 -10 7 2 4 -2 7 -10 7 -8 0 -12 -4 -9 -8 2 -4 0 -10 -6 -14 -5
-3 -10 0 -10 7 0 8 -3 9 -8 3 -4 -5 -18 -11 -32 -13 -14 -1 -31 -3 -37 -4 -7
-1 -13 -5 -13 -9 0 -5 -6 -6 -14 -3 -8 3 -17 1 -20 -4 -3 -5 -17 -8 -31 -7
-14 2 -25 -1 -25 -6 0 -4 -7 -6 -15 -2 -9 3 -22 -2 -29 -12 -9 -13 -15 -15
-20 -6 -6 9 -12 7 -23 -6 -8 -10 -12 -12 -8 -5 4 7 0 12 -10 12 -10 0 -13 -5
-9 -13 5 -8 2 -8 -9 2 -14 11 -17 11 -17 0 0 -11 -2 -11 -10 1 -6 9 -10 11
-10 3 0 -7 -7 -10 -17 -6 -12 5 -14 3 -8 -8 7 -11 6 -12 -6 -3 -8 5 -20 9 -26
8 -7 -1 -18 -2 -24 -3 -5 0 -7 -7 -3 -13 5 -10 4 -10 -6 -1 -11 10 -17 10 -29
0 -12 -9 -13 -9 -7 1 4 6 3 12 -3 12 -5 0 -13 -5 -17 -11 -4 -7 -9 -8 -17 0
-7 7 -20 6 -43 -4 -23 -9 -36 -10 -40 -3 -4 6 -9 5 -15 -3 -7 -12 -9 -12 -9 0
0 10 -3 11 -14 2 -11 -9 -16 -9 -21 0 -6 8 -10 7 -16 -2 -5 -8 -9 -9 -9 -3 0
6 -6 11 -12 12 -62 8 -74 8 -83 3 -16 -9 -55 -9 -49 0 2 4 14 6 26 4 11 -3 17
-1 14 3 -4 4 -16 8 -27 8 -10 1 -21 3 -24 4 -3 1 -13 3 -22 4 -10 1 -25 5 -33
11 -13 7 -13 6 -2 -7 10 -13 10 -18 1 -24 -8 -5 -9 -3 -5 5 5 8 3 11 -7 9 -9
-2 -23 6 -31 17 -10 12 -14 14 -11 5 4 -12 -1 -16 -19 -16 -14 0 -22 4 -20 8
8 12 -10 10 -23 -3 -9 -9 -11 -8 -9 4 1 9 6 20 11 24 4 4 5 2 0 -6 -6 -10 -4
-12 5 -6 10 6 7 12 -11 26 -13 9 -27 15 -31 13 -4 -3 -8 1 -8 8 0 9 -3 9 -10
-2 -5 -8 -10 -12 -10 -7 0 18 -2 23 -17 40 -9 9 -21 17 -27 17 -6 0 -4 -5 4
-10 8 -5 10 -10 4 -10 -6 0 -19 10 -28 22 -9 13 -15 18 -12 13 3 -6 -5 -17
-17 -25 -20 -12 -21 -12 -9 3 17 20 7 38 -15 30 -11 -4 -14 -2 -9 5 4 7 -1 10
-14 7 -11 -2 -20 1 -20 6 0 6 -5 7 -10 4 -8 -5 -7 -11 1 -21 21 -26 3 -15 -22
13 -13 15 -17 22 -8 15 12 -9 16 -9 16 1 0 10 -17 13 -63 12 -44 -2 -61 1 -57
9 5 8 3 8 -8 0 -9 -7 -108 -10 -286 -9 -150 0 -273 -3 -273 -8 0 -4 4 -6 8 -3
5 3 9 -1 9 -9 0 -13 -3 -12 -18 1 -10 9 -16 21 -12 27 4 6 1 7 -8 1 -8 -5
-116 -9 -241 -9 -215 0 -228 -1 -242 -20 -15 -19 -15 -19 -9 5 l6 25 -22 -25
c-12 -14 -20 -20 -17 -15 2 6 1 17 -5 25 -7 13 -9 12 -9 -2 0 -9 -4 -19 -9
-22 -5 -4 -7 4 -4 16 4 20 3 21 -7 5 -6 -9 -15 -15 -21 -12 -5 4 -9 0 -9 -7
-1 -7 -8 -2 -16 12 -14 24 -15 24 -11 2 3 -12 1 -20 -4 -16 -5 3 -9 13 -9 22
0 14 -2 15 -9 2 -6 -8 -8 -17 -5 -21 2 -4 -1 -11 -7 -15 -7 -4 -10 -3 -6 2 3
5 -2 18 -10 29 -15 20 -15 20 -10 -3 3 -12 1 -20 -4 -16 -5 3 -9 13 -9 22 0
14 -2 15 -9 2 -6 -8 -8 -17 -6 -20 2 -4 -2 -7 -10 -7 -8 0 -12 3 -10 7 2 3 0
12 -6 20 -6 11 -9 11 -10 3 -3 -28 -4 -32 -13 -40 -5 -4 -7 -4 -3 2 3 6 -2 19
-10 30 -15 20 -15 20 -11 -1 3 -12 0 -21 -7 -21 -7 0 -10 9 -8 21 4 18 3 19
-6 4 -7 -9 -20 -15 -31 -13 -11 2 -20 -1 -20 -8 0 -6 -7 -1 -16 11 -12 17 -19
20 -34 12 -10 -5 -20 -7 -23 -2 -2 4 -2 2 -1 -5 2 -6 -5 -17 -14 -25 -15 -12
-16 -11 -4 4 7 9 9 18 5 21 -4 2 -113 4 -240 3 -145 -1 -233 2 -233 8 0 5 -3
7 -6 4 -3 -4 -1 -16 6 -27 16 -31 3 -25 -15 7 -9 15 -14 19 -11 10 3 -9 -2
-22 -10 -29 -8 -7 -14 -8 -13 -3 4 21 -2 28 -11 14 -8 -12 -10 -12 -10 -1 0
11 -3 11 -17 0 -9 -8 -14 -9 -10 -3 4 7 0 17 -7 23 -11 9 -16 9 -22 0 -4 -7
-3 -9 3 -6 5 3 10 -1 10 -10 0 -13 -3 -12 -17 4 -15 19 -18 19 -29 4 -6 -9 -9
-11 -6 -4 6 14 -13 22 -38 15 -14 -4 -16 -7 -5 -13 9 -6 6 -8 -9 -6 -12 0 -19
5 -17 9 3 4 -12 7 -33 7 -38 -1 -38 -1 -8 -10 26 -7 24 -7 -13 -5 -23 2 -46 7
-50 11 -4 5 1 5 11 2 9 -4 17 -2 17 3 0 15 -40 12 -41 -2 0 -10 -2 -10 -6 0
-2 6 -20 12 -39 12 -20 0 -33 -4 -30 -8 2 -4 -5 -9 -17 -9 -17 -2 -19 0 -7 7
12 8 10 10 -8 10 -15 0 -21 -4 -17 -12 4 -7 -1 -4 -9 6 -9 11 -16 15 -16 10 0
-5 -18 -9 -40 -7 -22 1 -42 -3 -46 -8 -4 -6 -11 -6 -20 2 -11 9 -14 8 -14 -2
0 -9 -3 -10 -8 -3 -4 6 -18 17 -31 24 -19 10 -22 10 -15 -2 7 -11 5 -11 -9 0
-9 8 -22 10 -28 6 -7 -4 -9 -3 -6 3 4 6 0 14 -9 17 -10 4 -13 2 -9 -7 4 -6 -1
-3 -9 7 -12 15 -16 16 -16 5 0 -9 -3 -10 -8 -3 -4 6 -16 14 -27 18 -11 3 -32
17 -47 31 -16 14 -28 23 -28 19 0 -4 -8 3 -19 14 -10 12 -22 18 -26 14 -5 -4
-5 1 -2 10 3 10 3 17 -1 17 -4 -1 -10 0 -14 1 -5 1 -12 3 -18 4 -5 0 -16 10
-25 21 -9 11 -13 14 -9 6 5 -10 3 -12 -5 -7 -7 5 -10 14 -7 22 3 8 0 13 -7 11
-7 -1 -11 3 -10 9 1 7 -5 11 -15 10 -10 0 -16 5 -14 13 3 12 1 12 -14 0 -12
-9 -15 -9 -10 -2 4 7 3 13 -3 13 -5 0 -16 6 -23 13 -7 7 -29 24 -48 37 -19 14
-42 32 -52 40 -50 45 -182 140 -195 140 -15 0 -77 32 -85 44 -4 6 -8 7 -8 2 0
-5 -10 -1 -22 10 -14 12 -18 14 -13 4 6 -11 3 -11 -11 2 -128 113 -145 146
-208 403 -55 228 -73 365 -83 624 -11 264 -10 1038 1 1516 5 215 10 481 10
592 1 110 5 199 9 196 4 -2 5 6 2 19 -3 12 -6 48 -8 78 l-2 55 116 3 116 3 7
-83 c8 -103 39 -172 102 -227 83 -73 82 -73 648 -73 498 0 504 0 555 22 65 28
143 112 165 176 9 27 16 80 16 121 l0 74 115 -2 115 -1 75 71 c257 243 574
396 950 456 135 22 447 14 589 -14z m-2477 -73 c-3 -8 -6 -5 -6 6 -1 11 2 17
5 13 3 -3 4 -12 1 -19z m-477 -327 c0 -5 -10 -11 -22 -13 -22 -3 -23 -7 -26
-123 -3 -141 1 -165 28 -165 11 0 20 -4 20 -10 0 -6 -37 -10 -90 -10 -49 0
-90 4 -90 9 0 5 10 11 23 13 22 3 22 5 22 143 0 138 0 140 -22 143 -13 2 -23
8 -23 13 0 5 41 9 90 9 50 0 90 -4 90 -9z m570 -51 c0 -36 3 -40 25 -40 16 0
25 -6 25 -15 0 -9 -9 -15 -25 -15 -25 0 -25 -1 -25 -78 0 -84 5 -99 27 -80 22
18 28 0 8 -22 -14 -15 -29 -20 -54 -18 -47 4 -61 32 -61 125 0 47 -4 73 -12
77 -9 3 -5 12 13 28 15 13 34 35 44 51 24 38 35 34 35 -13z m-356 -51 c25 -19
26 -25 26 -110 0 -53 4 -89 10 -89 6 0 10 -4 10 -10 0 -6 -47 -10 -120 -10
-73 0 -120 4 -120 10 0 6 5 10 10 10 6 0 10 38 10 95 0 57 -4 95 -10 95 -5 0
-10 5 -10 11 0 8 18 10 59 6 32 -2 65 -1 72 4 21 13 34 11 63 -12z m176 11 c9
-5 19 -5 27 1 9 8 14 1 19 -26 9 -50 -7 -62 -34 -25 -23 31 -52 40 -52 17 0
-7 20 -29 44 -50 52 -43 62 -68 46 -107 -15 -36 -57 -55 -93 -41 -17 7 -28 7
-32 0 -12 -19 -25 3 -25 42 0 21 2 39 5 39 3 0 18 -14 34 -32 19 -21 33 -29
44 -25 26 10 21 21 -33 66 -42 35 -50 48 -50 76 0 52 59 91 100 65z m423 -21
c13 -16 17 -39 17 -95 0 -62 3 -74 17 -74 14 0 14 -2 -2 -20 -21 -23 -73 -27
-81 -5 -5 12 -9 12 -29 -1 -29 -19 -74 -15 -88 7 -19 31 1 68 53 97 41 22 50
32 50 55 0 28 -20 44 -39 32 -7 -4 -7 -12 2 -25 9 -16 9 -23 -5 -37 -14 -14
-22 -15 -43 -5 -29 13 -31 28 -10 60 32 44 124 51 158 11z m4894 -321 c-3 -8
-6 -5 -6 6 -1 11 2 17 5 13 3 -3 4 -12 1 -19z m-84 -1693 c-3 -9 -8 -14 -10
-11 -3 3 -2 9 2 15 9 16 15 13 8 -4z m-5 -110 c-2 -48 -7 -85 -13 -85 -5 0 -3
-5 5 -10 13 -9 13 -10 0 -10 -13 0 -13 -1 0 -11 13 -9 13 -10 0 -6 -16 4 -16
17 -4 145 4 34 8 62 11 62 2 0 3 -38 1 -85z m-85 -562 c-5 -12 -3 -14 8 -8 11
7 12 6 2 -7 -7 -8 -11 -18 -8 -21 3 -4 2 -5 -1 -3 -3 2 -5 6 -3 8 1 2 -3 13
-9 24 -11 22 -6 38 9 28 4 -2 5 -12 2 -21z m-3813 -1377 c0 -2 -8 -10 -17 -17
-16 -13 -17 -12 -4 4 13 16 21 21 21 13z m457 -13 c0 -8 -4 -10 -12 -3 -7 6
-15 6 -22 -1 -6 -6 -10 -5 -10 4 0 7 10 13 22 13 12 0 22 -6 22 -13z m27 1 c3
-8 2 -12 -4 -9 -6 3 -10 10 -10 16 0 14 7 11 14 -7z m27 -7 c-10 -9 -11 -8 -5
6 3 10 9 15 12 12 3 -3 0 -11 -7 -18z m49 18 c0 -2 -6 -8 -13 -14 -10 -8 -14
-7 -14 2 0 8 6 14 14 14 7 0 13 -1 13 -2z m11 -18 c-10 -9 -11 -8 -5 6 3 10 9
15 12 12 3 -3 0 -11 -7 -18z m49 18 c0 -2 -6 -8 -13 -14 -10 -8 -14 -7 -14 2
0 8 6 14 14 14 7 0 13 -1 13 -2z m11 -18 c-10 -9 -11 -8 -5 6 3 10 9 15 12 12
3 -3 0 -11 -7 -18z m49 18 c0 -2 -6 -8 -13 -14 -10 -8 -14 -7 -14 2 0 8 6 14
14 14 7 0 13 -1 13 -2z m11 -18 c-10 -9 -11 -8 -5 6 3 10 9 15 12 12 3 -3 0
-11 -7 -18z m49 18 c0 -2 -6 -8 -13 -14 -10 -8 -14 -7 -14 2 0 8 6 14 14 14 7
0 13 -1 13 -2z m11 -18 c-10 -9 -11 -8 -5 6 3 10 9 15 12 12 3 -3 0 -11 -7
-18z m49 18 c0 -2 -6 -8 -13 -14 -10 -8 -14 -7 -14 2 0 8 6 14 14 14 7 0 13
-1 13 -2z m11 -18 c-10 -9 -11 -8 -5 6 3 10 9 15 12 12 3 -3 0 -11 -7 -18z
m46 8 c0 -6 -6 -12 -12 -12 -6 0 -12 6 -12 12 0 6 6 12 12 12 6 0 12 -6 12
-12z m27 -1 c3 -8 2 -12 -4 -9 -6 3 -10 10 -10 16 0 14 7 11 14 -7z m76 11 c0
-2 -6 -8 -13 -14 -10 -8 -14 -7 -14 2 0 8 6 14 14 14 7 0 13 -1 13 -2z m37
-12 c0 -9 -4 -10 -14 -2 -7 6 -13 12 -13 14 0 1 6 2 13 2 8 0 14 -6 14 -14z
m43 12 c0 -2 -6 -8 -13 -14 -10 -8 -14 -7 -14 2 0 8 6 14 14 14 7 0 13 -1 13
-2z m37 -12 c0 -9 -4 -10 -14 -2 -7 6 -13 12 -13 14 0 1 6 2 13 2 8 0 14 -6
14 -14z m27 1 c3 -8 2 -12 -4 -9 -6 3 -10 10 -10 16 0 14 7 11 14 -7z m50 4
c-3 -5 -9 -6 -14 -3 -4 3 -10 0 -12 -7 -3 -8 -6 -7 -10 3 -4 11 1 15 17 15 13
0 21 -4 19 -8z m17 -11 c-10 -9 -11 -8 -5 6 3 10 9 15 12 12 3 -3 0 -11 -7
-18z m49 18 c0 -2 -6 -8 -13 -14 -10 -8 -14 -7 -14 2 0 8 6 14 14 14 7 0 13
-1 13 -2z m11 -18 c-10 -9 -11 -8 -5 6 3 10 9 15 12 12 3 -3 0 -11 -7 -18z
m49 18 c0 -2 -6 -8 -13 -14 -10 -8 -14 -7 -14 2 0 8 6 14 14 14 7 0 13 -1 13
-2z m37 -12 c0 -9 -4 -10 -14 -2 -7 6 -13 12 -13 14 0 1 6 2 13 2 8 0 14 -6
14 -14z m43 12 c0 -2 -6 -8 -13 -14 -10 -8 -14 -7 -14 2 0 8 6 14 14 14 7 0
13 -1 13 -2z m37 -12 c0 -9 -4 -10 -14 -2 -7 6 -13 12 -13 14 0 1 6 2 13 2 8
0 14 -6 14 -14z m43 12 c0 -2 -6 -8 -13 -14 -10 -8 -14 -7 -14 2 0 8 6 14 14
14 7 0 13 -1 13 -2z m11 -18 c-10 -9 -11 -8 -5 6 3 10 9 15 12 12 3 -3 0 -11
-7 -18z m36 8 c0 -8 -4 -12 -9 -9 -5 3 -6 10 -3 15 9 13 12 11 12 -6z m40 0
c0 -6 -6 -12 -12 -12 -6 0 -12 6 -12 12 0 6 6 12 12 12 6 0 12 -6 12 -12z m27
-1 c3 -8 2 -12 -4 -9 -6 3 -10 10 -10 16 0 14 7 11 14 -7z m-2047 -11 c0 -9
-4 -10 -14 -2 -7 6 -13 12 -13 14 0 1 6 2 13 2 8 0 14 -6 14 -14z m43 12 c0
-2 -6 -8 -13 -14 -10 -8 -14 -7 -14 2 0 8 6 14 14 14 7 0 13 -1 13 -2z m23 -8
c3 -8 -1 -14 -8 -14 -7 0 -11 6 -8 14 3 7 6 13 8 13 2 0 5 -6 8 -13z m49 -6
c-4 -10 -7 -11 -10 -3 -2 7 -8 10 -12 7 -5 -3 -11 -2 -14 3 -2 4 6 8 19 8 16
0 21 -4 17 -15z m19 -4 c-10 -9 -11 -8 -5 6 3 10 9 15 12 12 3 -3 0 -11 -7
-18z m41 14 c8 11 9 11 6 1 -4 -16 -22 -18 -24 -2 -2 7 -1 6 3 -1 4 -8 8 -7
15 2z m65 -8 c0 -8 -4 -10 -12 -3 -7 6 -15 6 -22 -1 -6 -6 -10 -5 -10 4 0 7
10 13 22 13 12 0 22 -6 22 -13z m27 1 c3 -8 2 -12 -4 -9 -6 3 -10 10 -10 16 0
14 7 11 14 -7z m33 -1 c0 -9 -4 -10 -14 -2 -7 6 -13 12 -13 14 0 1 6 2 13 2 8
0 14 -6 14 -14z m43 12 c0 -2 -6 -8 -13 -14 -10 -8 -14 -7 -14 2 0 8 6 14 14
14 7 0 13 -1 13 -2z m74 -5 c-8 -7 -63 -7 -58 1 2 4 17 6 33 5 16 0 27 -3 25
-6z m1710 -26 c3 -8 2 -12 -4 -9 -6 3 -10 10 -10 16 0 14 7 11 14 -7z m1290
-42 c3 -5 -1 -9 -9 -9 -8 0 -12 4 -9 9 3 4 7 8 9 8 2 0 6 -4 9 -8z m-796 -137
c-3 -3 -9 2 -12 12 -6 14 -5 15 5 6 7 -7 10 -15 7 -18z"/>
<path d="M2671 8028 c-13 -20 -12 -22 1 -11 8 7 18 10 22 6 4 -4 4 0 0 10 -8
21 -6 21 -23 -5z"/>
<path d="M3085 7776 c1 -12 5 -21 10 -21 4 0 9 9 11 21 2 12 -2 21 -10 21 -7
0 -12 -10 -11 -21z"/>
<path d="M3025 7759 c-4 -6 -4 -13 -1 -16 3 -4 6 -1 6 6 0 7 9 3 21 -10 l20
-24 -17 28 c-18 30 -20 31 -29 16z"/>
<path d="M2949 7733 c-13 -16 -12 -17 4 -4 9 7 17 15 17 17 0 8 -8 3 -21 -13z"/>
<path d="M3077 6964 c-3 -3 -3 -12 0 -20 3 -8 1 -14 -5 -14 -5 0 -12 -9 -15
-19 -3 -14 -11 -18 -26 -14 -12 3 -21 1 -21 -6 0 -16 26 -25 42 -15 7 5 22 10
32 11 25 4 30 9 21 23 -4 6 -13 9 -21 6 -11 -4 -11 -1 2 18 13 21 6 45 -9 30z"/>
<path d="M2979 6888 c-9 -42 -8 -49 8 -46 20 4 24 39 6 46 -7 2 -13 2 -14 0z"/>
<path d="M3030 6812 c0 -6 5 -14 10 -17 8 -5 7 -12 -2 -23 -12 -15 -11 -16 5
-3 14 11 15 17 5 30 -7 9 -14 18 -15 20 -2 2 -3 -1 -3 -7z"/>
<path d="M2875 7841 c-3 -5 -1 -12 5 -16 5 -3 10 1 10 9 0 18 -6 21 -15 7z"/>
<path d="M2985 7790 c-3 -5 1 -10 10 -10 9 0 13 5 10 10 -3 6 -8 10 -10 10 -2
0 -7 -4 -10 -10z"/>
<path d="M4926 6709 c-259 -27 -498 -115 -721 -264 -348 -232 -585 -588 -676
-1015 -31 -143 -33 -435 -5 -585 127 -682 664 -1200 1348 -1301 150 -22 399
-15 543 16 646 137 1133 634 1255 1280 115 607 -158 1254 -675 1602 -317 213
-691 307 -1069 267z m335 -154 c60 -21 158 -75 135 -75 -5 0 1 -9 14 -20 13
-11 20 -20 17 -20 -4 0 1 -9 10 -19 18 -21 29 -136 13 -126 -6 4 -10 3 -10 0
0 -3 29 -19 65 -35 68 -30 77 -37 48 -37 -44 0 -54 -3 -47 -15 5 -8 0 -7 -11
2 -11 9 -16 10 -11 3 4 -8 1 -13 -9 -13 -10 0 -13 -5 -9 -12 5 -8 2 -9 -9 -5
-10 4 -16 2 -14 -6 1 -7 -4 -11 -12 -9 -12 3 -12 0 -2 -12 11 -13 10 -15 -8
-11 -13 2 -18 -1 -15 -9 2 -6 -8 -23 -23 -36 l-28 -25 20 25 c18 24 18 24 -7
-1 -14 -15 -29 -25 -32 -22 -3 4 -6 2 -6 -3 0 -5 -10 -11 -22 -11 -13 -1 -24
-7 -26 -13 -2 -5 -10 -10 -18 -10 -10 0 -12 -5 -8 -12 6 -10 4 -10 -8 0 -13
10 -19 8 -39 -12 -19 -20 -27 -22 -44 -14 -18 10 -19 10 -5 -7 14 -17 14 -18
-9 -5 -22 11 -23 11 -17 -6 6 -18 5 -18 -9 0 -9 12 -15 15 -15 7 0 -11 -3 -11
-15 -1 -12 10 -15 9 -16 -6 -1 -17 -2 -17 -6 -1 -2 9 -9 17 -14 17 -6 0 -7 -6
-4 -12 4 -7 -2 -3 -12 10 -13 16 -22 19 -29 12 -8 -8 -15 -6 -25 7 -13 17 -13
17 6 3 17 -12 18 -12 7 0 -7 8 -16 15 -20 15 -4 1 -18 7 -31 14 -19 11 -22 11
-15 -1 4 -7 -5 0 -21 15 -16 15 -34 26 -41 23 -7 -3 -20 7 -29 22 l-16 27 20
-24 c12 -13 21 -19 21 -14 0 18 -38 45 -52 37 -9 -5 -8 -2 2 11 8 10 10 16 4
12 -7 -4 -14 2 -17 13 -3 11 -13 20 -22 20 -10 0 -13 5 -9 13 5 8 2 7 -9 -2
-15 -12 -17 -12 -11 2 3 10 -2 20 -16 27 -18 10 -21 10 -14 -2 6 -11 5 -11 -9
1 -9 7 -26 11 -37 8 -27 -7 -26 10 2 19 12 3 37 13 57 22 20 9 40 15 44 14 5
-2 5 3 0 10 -4 7 -6 21 -5 31 2 9 -3 17 -10 17 -10 0 -10 2 1 9 9 6 10 10 2
16 -9 5 -9 10 0 21 6 8 8 14 5 14 -6 0 2 11 32 45 6 7 12 19 12 26 0 7 3 9 6
6 4 -4 15 3 25 14 9 11 19 19 21 18 2 -1 22 8 44 19 23 12 54 23 69 26 15 3
30 7 32 10 3 2 43 4 90 4 63 0 104 -6 154 -23z m-461 -385 c0 -5 -2 -10 -4
-10 -3 0 -8 5 -11 10 -3 6 -1 10 4 10 6 0 11 -4 11 -10z m440 -144 c0 -2 -8
-10 -17 -17 -16 -13 -17 -12 -4 4 13 16 21 21 21 13z m455 -205 c47 -47 53
-54 83 -109 13 -24 20 -47 17 -51 -3 -5 -25 -21 -50 -34 l-45 -25 -19 23 c-10
14 -21 22 -24 19 -7 -7 -32 38 -29 50 2 5 -3 4 -11 -2 -11 -10 -17 -9 -27 4
-8 8 -26 22 -42 30 -15 8 -28 18 -28 22 0 4 23 35 51 69 57 70 58 70 124 4z
m-1033 -1806 c27 -8 67 -17 90 -20 24 -4 46 -9 49 -11 13 -8 155 -16 299 -17
134 -1 230 4 355 17 l50 6 -70 -25 c-38 -13 -71 -24 -73 -24 -2 -1 0 -7 5 -13
8 -14 10 -19 12 -45 1 -15 3 -16 10 -3 6 8 7 19 4 25 -4 5 -3 7 2 3 4 -4 15
-2 24 4 12 10 12 8 -1 -8 -23 -27 -23 -42 0 -21 17 15 18 14 19 -11 0 -15 -1
-19 -4 -9 -5 19 -24 14 -19 -6 1 -7 1 -8 -2 -3 -2 4 -8 2 -13 -5 -7 -12 -9
-11 -9 1 0 13 -2 13 -9 1 -5 -8 -15 -16 -23 -17 -7 -2 -24 -5 -38 -8 -58 -14
-78 -17 -129 -25 -29 -4 -81 -7 -115 -6 -78 3 -179 32 -169 48 4 7 -1 6 -10
-2 -9 -7 -17 -9 -17 -3 0 5 6 15 14 21 7 6 12 23 9 39 -3 25 -3 26 6 5 13 -30
19 -29 14 1 -3 14 -12 24 -22 24 -29 0 -204 52 -256 77 -58 27 -51 31 17 10z
m231 -124 c3 -12 -3 -27 -14 -37 -18 -16 -19 -16 -18 17 1 32 2 32 9 9 l8 -25
1 28 c1 32 7 35 14 8z m-53 -21 c-12 -8 -12 -10 -1 -10 8 0 12 -3 8 -6 -9 -9
-28 6 -22 17 4 5 12 9 18 9 7 0 6 -4 -3 -10z m640 4 c0 -8 -19 -13 -24 -6 -3
5 1 9 9 9 8 0 15 -2 15 -3z"/>
<path d="M5645 5690 c-3 -5 -2 -17 3 -26 8 -15 10 -15 15 0 5 12 3 15 -5 10
-8 -5 -9 -2 -5 9 7 19 2 23 -8 7z"/>
<path d="M5676 5662 c-2 -4 4 -18 13 -31 14 -18 20 -21 26 -11 6 9 4 11 -5 5
-10 -6 -12 -4 -7 8 4 10 2 16 -6 14 -7 -1 -11 4 -9 11 2 13 -4 16 -12 4z"/>
<path d="M5326 3932 c-5 -9 2 -63 10 -71 2 -2 -2 -11 -8 -20 -8 -10 -4 -9 10
3 17 14 22 16 22 5 0 -12 2 -12 9 0 6 8 6 24 0 38 -5 12 -6 23 -3 23 4 0 1 7
-6 15 -14 17 -26 19 -34 7z m27 -33 c2 -8 6 -19 9 -25 4 -6 1 -11 -7 -11 -8 0
-15 5 -16 11 0 6 -2 21 -3 34 -3 24 14 15 17 -9z"/>
<path d="M5280 3919 c0 -5 -4 -7 -10 -4 -14 9 -12 -1 3 -13 10 -8 13 -6 14 9
1 10 0 19 -3 19 -2 0 -4 -5 -4 -11z"/>
<path d="M5303 3905 c0 -14 3 -27 7 -30 4 -2 6 7 4 21 -3 35 -11 41 -11 9z"/>
<path d="M4930 3911 c0 -6 4 -13 10 -16 6 -3 7 1 4 9 -7 18 -14 21 -14 7z"/>
<path d="M5240 3906 c0 -2 8 -10 18 -17 15 -13 16 -12 3 4 -13 16 -21 21 -21
13z"/>
<path d="M3361 5533 c-70 -292 -69 -585 4 -873 40 -158 91 -282 225 -550 32
-63 79 -164 105 -225 55 -129 139 -283 204 -375 25 -36 48 -67 51 -70 3 -3 24
-30 47 -60 37 -50 189 -202 238 -240 142 -110 327 -199 470 -226 11 -2 31 -6
45 -9 49 -10 96 -16 160 -20 36 -2 65 -5 65 -6 0 -1 48 -3 107 -4 78 -2 106 1
101 9 -5 8 -3 8 8 0 12 -9 33 -11 42 -4 1 1 25 3 52 5 28 2 61 6 75 8 14 2 46
8 72 12 26 4 46 10 43 14 -2 4 6 7 18 6 22 -2 120 27 215 63 60 23 172 91 247
149 227 176 410 428 550 758 26 61 75 166 109 235 164 333 242 570 250 765 3
50 2 74 0 55 -55 -418 -215 -762 -489 -1049 -247 -259 -564 -432 -935 -513
-93 -20 -133 -22 -345 -22 -211 0 -252 2 -343 22 -474 104 -862 363 -1123 751
-175 259 -271 537 -299 861 -13 150 0 331 35 499 14 63 23 116 21 118 -2 2
-13 -36 -25 -84z"/>
<path d="M6852 5380 c0 -14 2 -19 5 -12 2 6 2 18 0 25 -3 6 -5 1 -5 -13z"/>
<path d="M6863 5305 c0 -22 2 -30 4 -17 2 12 2 30 0 40 -3 9 -5 -1 -4 -23z"/>
<path d="M6873 5100 c0 -47 2 -66 4 -42 2 23 2 61 0 85 -2 23 -4 4 -4 -43z"/>
<path d="M8043 4044 c1 -22 24 -30 24 -8 0 7 -4 11 -8 8 -4 -2 -9 2 -12 8 -3
7 -5 4 -4 -8z"/>
<path d="M8047 3996 c-3 -8 0 -22 7 -32 10 -13 15 -14 21 -4 5 9 4 11 -3 6
-12 -7 -16 5 -13 32 2 16 -6 15 -12 -2z"/>
<path d="M8036 3950 c9 -13 10 -21 5 -47 -1 -5 -6 -1 -12 7 -9 12 -9 11 -4 -5
4 -11 7 -28 7 -39 -1 -10 0 -17 1 -15 2 2 9 13 17 23 10 13 10 17 3 12 -18
-10 -16 4 2 24 14 15 13 19 -7 36 -13 10 -18 12 -12 4z"/>
<path d="M3620 2291 c0 -6 4 -13 10 -16 6 -3 7 1 4 9 -7 18 -14 21 -14 7z"/>
<path d="M6066 2137 c3 -10 9 -15 12 -12 3 3 0 11 -7 18 -10 9 -11 8 -5 -6z"/>
<path d="M2607 6323 c-4 -3 -7 -41 -7 -84 0 -57 4 -78 14 -82 23 -9 26 2 26
90 0 62 -3 83 -13 83 -8 0 -17 -3 -20 -7z"/>
<path d="M3202 6230 c-14 -23 -8 -40 14 -40 9 0 14 11 14 30 0 35 -10 38 -28
10z"/>
</g>
</svg>
