<svg width="674" height="193" viewBox="0 0 674 193" fill="none" xmlns="http://www.w3.org/2000/svg">
<path fill-rule="evenodd" clip-rule="evenodd" d="M27.8163 4.88806C-0.475459 23.803 -8.80013 60.4577 12.061 74.258C21.4556 80.4721 24.4866 78.1204 19.5295 68.4652C11.9251 53.6544 22.051 12.8277 33.3277 12.8277C35.7173 12.8277 33.8153 126.125 31.2678 135.505C26.7064 152.302 42.4516 144.903 49.107 127.121C53.8782 114.376 55.4466 9.31973 50.9291 5.07679C43.9172 -1.5068 37.4616 -1.55972 27.8163 4.88806ZM219.579 2.09305C218.535 3.68877 218.06 7.59519 217.942 15.5738C217.776 26.8077 217.776 26.8077 208.071 26.8077C197.448 26.8077 197.121 26.9975 195.584 34.0684C194.35 39.7453 196.051 40.7878 206.555 40.7878C220.498 40.7878 221.094 83.2152 207.414 101.844C203.525 107.14 203.525 107.14 202.794 101.296C201.73 92.7825 198.251 87.6508 188.289 79.9009C173.18 68.1477 174.333 70.015 178.43 63.9307C186.747 51.5754 185.201 42.7849 174.709 42.7849C161.615 42.7849 151.784 59.4111 158.245 70.6311C160.645 74.8012 159.786 76.9451 147.294 97.9691C133.325 121.476 131.489 119.463 131.849 81.0413C132.137 50.3172 132.397 51.3966 123.617 46.8461C110.604 40.1007 98.9921 50.8364 89.1239 78.7336C85.3018 89.5401 84.9042 88.4946 85.6354 69.5636C86.0101 59.8515 86.035 51.0182 85.6914 49.9347C84.6035 46.5086 71.4396 42.8968 69.7863 45.5699C68.5405 47.5861 68.7593 120.257 70.0231 123.927C73.116 132.909 87.1389 132.101 87.1389 122.941C87.1389 108.685 107.318 59.7607 113.198 59.7607C113.635 59.7607 113.907 72.4545 113.802 87.9704C113.565 123.357 115.375 129.661 125.775 129.661C135.634 129.661 143.189 121.472 160.984 91.4933C167.846 79.9329 171.279 80.6448 181.986 95.8511C191.628 109.544 181.842 122.133 168.461 113.251C162.169 109.075 161.101 108.936 158.367 111.936C151.013 120.007 152.667 124.688 164.071 128.073C184.494 134.135 202.389 125.776 213.854 104.818C216.621 99.7615 216.621 99.7615 217.892 105.974C223.651 134.121 245.03 138.22 257.526 113.571C260.151 108.393 260.151 108.393 262.5 114.171C270.276 133.295 292.343 135.101 304.473 117.605C307.248 113.601 307.248 113.601 308.508 117.263C313.613 132.108 333.018 133.727 341.13 119.984C343.142 116.575 343.142 116.575 344.877 119.374C352.693 131.971 368.883 133.161 380.62 122.001C384.744 118.079 384.744 118.079 385.043 121.124C385.311 123.867 383.838 125.652 370.163 139.147C344.41 164.563 341.708 179.933 361.365 189.199C385.585 200.615 401.824 179.635 401.824 136.926C401.824 121.485 401.824 121.485 408.66 112.343C418.738 98.8628 428.659 80.7706 432.727 68.4492C433.953 64.7365 447.725 62.6655 447.1 66.2883C447.001 66.8585 446.216 71.3521 445.355 76.2741C438.264 116.798 461.596 147.3 480.246 121.884C483.863 116.954 483.827 116.962 485.902 120.608C493.32 133.641 514.168 132.054 524.597 117.664C527.496 113.664 527.496 113.664 528.56 116.713C533.761 131.629 551.294 134.182 559.666 121.244C562.164 117.384 562.164 117.384 562.438 120.277C563.178 128.089 565.311 129.661 575.178 129.661C582.169 129.661 582.245 129.496 583.51 111.686C584.676 95.257 586.612 86.4535 591.795 74.0073C594.375 67.8142 596.604 64.8194 596.639 67.4996C597.036 97.5876 601.729 119.567 608.346 122.331C616.532 125.749 619.791 123.27 620.254 113.27C620.842 100.569 628.063 72.4216 632.068 67.22C633.447 65.4296 633.529 65.9698 632.988 73.2414C631.443 94.0217 635.196 115.678 641.603 122.954C653.077 135.983 668.273 129.956 672.532 110.688C675.517 97.1852 669.698 93.4236 666.082 106.518C663.016 117.617 659.802 120.501 655.05 116.416C650.62 112.607 649.609 105.438 649.592 77.708C649.574 49.8328 649.714 50.3701 641.561 46.8641C634.537 43.8434 629.746 44.3327 627.435 48.306C624.617 53.1471 618.681 70.9037 616.173 81.9959C613.523 93.7112 613.272 92.7415 612.092 66.2514C611.378 50.1993 611.418 50.3291 606.216 47.2815C594.747 40.5641 590.801 44.4565 582.497 70.6801C580.146 78.1035 580.146 78.1035 579.646 63.2018C579.08 46.3129 578.881 45.9893 568.434 44.9858C562.26 44.3936 562.642 42.6351 561.816 75.4003C560.948 109.809 558.216 118.676 548.481 118.676C542.69 118.676 542.203 115.863 542.021 81.3528C541.843 47.7059 542.078 49.002 535.791 46.91C529.052 44.6682 522.671 46.6474 524.157 50.5179C524.471 51.3337 523.068 50.5448 521.04 48.7664C500.216 30.4895 479.464 52.7657 479.169 93.7122C479.024 113.762 479.281 111.898 476.161 115.604C464.415 129.558 456.984 102.045 464.131 71.0665C468.249 53.218 465.624 49.1508 451.594 51.6413C435.616 54.4772 436.789 54.649 436.789 49.4784C436.789 42.4224 432.259 39.4187 424.96 41.6366C416.911 44.0831 413.351 56.5373 419.011 62.4468C422.819 66.4222 417.672 81.7962 406.101 101.011C401.399 108.818 401.521 109.463 401.744 77.9337C401.964 46.958 402.359 48.7144 394.733 46.6754C389.029 45.1505 385.056 46.0742 384.296 49.1019C383.724 51.3786 383.697 51.3726 380.255 48.1263C361.499 30.4445 339.769 53.216 339.255 91.0939C338.962 112.685 336.681 119.188 329.651 118.483C322.352 117.752 320.544 107.507 321.557 72.5973C322.212 49.9856 322.212 49.9856 319.276 48.4678C312.297 44.86 305.537 45.1915 304.533 49.1908C303.945 51.5304 303.945 51.5304 300.407 48.1942C282.814 31.6099 262.095 50.6277 258.975 86.2229C257.881 98.705 253.677 109.237 247.822 114.161C238.462 122.034 234.442 109.855 235.47 76.7364C236.455 45.0177 236.808 41.8053 239.327 41.6715C240.514 41.6076 241.934 41.4518 242.484 41.324C243.033 41.1962 247.344 41.0234 252.063 40.9396C261.504 40.7728 262.963 39.6933 262.963 32.8771C262.963 29.5738 260.655 28.8119 250.6 28.7939C236.865 28.769 237.226 29.1195 237.366 15.9632C237.489 4.33985 237.489 4.33984 230.995 2.128C222.781 -0.669004 221.392 -0.673002 219.579 2.09305ZM297.835 59.3363C307.639 67.5825 305.55 105.328 294.73 115.416C284.665 124.802 277.449 114.487 277.449 90.7164C277.449 64.458 286.804 50.0585 297.835 59.3363ZM378.83 59.5899C387.692 68.4493 384.891 105.866 374.65 115.416C365.221 124.21 357.909 115.273 357.3 94.2114C356.516 67.1022 367.95 48.7145 378.83 59.5899ZM516.614 58.2139C529.518 64.8833 525.213 113.061 511.304 117.649C500.899 121.081 494.793 105.084 497.549 81.6105C499.847 62.0254 507.002 53.245 516.614 58.2139ZM385.565 152.378C384.72 173.35 380.235 183.584 371.888 183.584C361.303 183.584 359.554 173.233 367.746 159.074C370.369 154.543 384.245 138.648 385.58 138.648C385.876 138.648 385.87 144.827 385.565 152.378Z" fill="black"/>
</svg>
